<?xml version="1.0" ?><svg id="Capa_1" style="enable-background:new 0 0 512 512;" version="1.1" viewBox="0 0 512 512" xml:space="preserve" xmlns="http://www.w3.org/2000/svg" xmlns:xlink="http://www.w3.org/1999/xlink"><g><g><path d="M196,206c-5.52,0-10,4.48-10,10s4.48,10,10,10s10-4.48,10-10S201.52,206,196,206z"/></g></g><g><g><path d="M256,186c-7.751,0-15.55,0.695-23.18,2.068c-5.436,0.978-9.05,6.176-8.072,11.612c0.978,5.436,6.174,9.055,11.612,8.071    C242.825,206.59,249.433,206,256,206c60.654,0,110,49.346,110,110s-49.346,110-110,110s-110-49.346-110-110    c0-23.452,7.308-45.841,21.132-64.748c3.26-4.458,2.289-10.715-2.17-13.975c-4.457-3.261-10.714-2.288-13.975,2.17    C134.641,261.804,126,288.275,126,316c0,71.683,58.318,130,130,130s130-58.317,130-130S327.682,186,256,186z"/></g></g><g><g><path d="M315.482,261.17c-13.262-15.472-31.027-23.992-50.022-23.992s-36.761,8.521-50.023,23.993    c-6.125,7.147-11.043,15.625-14.454,24.827H181c-5.523,0-10,4.478-10,10c0,5.522,4.477,10,10,10h15.149    c-0.452,3.691-0.689,7.423-0.689,11.18c0,2.96,0.149,5.904,0.428,8.82H181c-5.523,0.002-10,4.48-10,10.002c0,5.522,4.477,10,10,10    h19.143c3.408,10.097,8.614,19.384,15.297,27.19c13.27,15.47,31.034,23.989,50.02,23.989c16.792,0,33.028-6.881,45.716-19.375    c3.936-3.874,3.984-10.206,0.109-14.142c-3.875-3.935-10.206-3.983-14.142-0.108c-8.923,8.786-20.176,13.625-31.684,13.625    c-13.057,0-25.43-6.041-34.833-17.003c-3.585-4.188-6.592-8.984-8.975-14.177h52.679c5.523,0,10-4.478,10-10    c0-5.522-4.477-10-10-10h-58.327c-0.358-2.902-0.543-5.849-0.543-8.82c0-3.773,0.299-7.51,0.878-11.18h57.992    c5.523,0,10-4.478,10-10c0-5.522-4.477-10-10-10h-51.549c2.19-4.3,4.819-8.285,7.841-11.813    c9.401-10.968,21.774-17.008,34.838-17.008c13.064,0,25.437,6.04,34.838,17.008c3.592,4.192,9.907,4.68,14.1,1.085    C318.591,271.676,319.077,265.364,315.482,261.17z"/></g></g><g><g><path d="M497.288,324.574L472,290.995V216c0-60.654-49.346-110-110-110h-72.127l6.67-20.014C312.834,85.694,326,72.36,326,56    c0-16.542-13.458-30-30-30s-30,13.458-30,30c0,9.599,4.537,18.154,11.574,23.649L268.792,106h-25.584l-8.782-26.351    C241.463,74.154,246,65.599,246,56c0-16.542-13.458-30-30-30s-30,13.458-30,30c0,16.36,13.166,29.694,29.457,29.986l6.67,20.014    H150c-60.654,0-110,49.346-110,110v75.355l-25.257,33.178c-0.026,0.035-0.052,0.069-0.078,0.104C4.934,337.773,0,351.69,0,366    c0,33.414,28.143,64.284,79.243,86.924C127.386,474.254,190.16,486,256,486s128.614-11.746,176.757-33.076    C483.857,430.284,512,399.414,512,366C512,351.69,507.066,337.773,497.288,324.574z M296,46c5.514,0,10,4.486,10,10    s-4.486,10-10,10c-5.514,0-10-4.486-10-10S290.486,46,296,46z M216,66c-5.514,0-10-4.486-10-10s4.486-10,10-10    c5.514,0,10,4.486,10,10S221.514,66,216,66z M60,216c0-49.626,40.374-90,90-90h85.924c0.025,0,0.049,0.003,0.074,0.003    c0.024,0,0.049-0.003,0.074-0.003h39.856c0.024,0,0.049,0.003,0.074,0.003c0.025,0,0.049-0.003,0.074-0.003H362    c49.626,0,90,40.374,90,90v45.952c-3.044-5.366-5.823-10.881-8.285-16.532c-5.504-12.61-9.528-25.884-11.961-39.452    C425.533,171.221,395.39,146,360.08,146h-213c-6.542,0-13.035,0.911-19.304,2.71c-12.125,3.486-23.015,10.747-31.493,20.997    c-7.938,9.601-13.411,21.345-15.825,33.96C76.623,223.674,69.653,243.091,60,261.016V216z M424.656,434.639    C379.669,454.569,318.196,466,256,466s-123.669-11.431-168.656-31.361C44.546,415.677,20,390.659,20,366    c0-9.912,3.599-19.806,10.698-29.406l27.916-36.681l0.452-0.586c20.475-26.889,34.665-58.666,41.036-91.897    c1.784-9.325,5.794-17.962,11.595-24.977c5.899-7.132,13.371-12.153,21.602-14.521c4.47-1.282,9.106-1.933,13.782-1.933h213    c25.611,0,47.475,18.291,51.987,43.495c2.709,15.106,7.189,29.886,13.315,43.92c6.119,14.041,13.9,27.377,23.131,39.643    l32.751,43.484C488.388,346.159,492,356.07,492,366C492,390.659,467.454,415.677,424.656,434.639z"/></g></g><g/><g/><g/><g/><g/><g/><g/><g/><g/><g/><g/><g/><g/><g/><g/></svg>